<svg width="445" height="97" viewBox="0 0 445 97" fill="none" xmlns="http://www.w3.org/2000/svg">
<rect width="97" height="97" rx="27" fill="#9CEE1E"/>
<path d="M25 22.2744V22.2744C34.1614 22.2744 41.5882 29.7012 41.5882 38.8626V75.7254V75.7254C32.4268 75.7254 25 68.2986 25 59.1372V22.2744Z" fill="#0C0C09"/>
<path d="M72 49.9219V49.9219C62.8386 49.9219 55.4118 57.3487 55.4118 66.5101V75.7258V75.7258C64.5732 75.7258 72 68.299 72 59.1376V49.9219Z" fill="#0C0C09"/>
<path d="M51.7256 22.2744H59.0981C66.2237 22.2744 72.0001 28.0508 72.0001 35.1764V35.1764H64.6275C57.502 35.1764 51.7256 29.4 51.7256 22.2744V22.2744Z" fill="#0C0C09"/>
<path d="M131 72.04V25.96H150.514C150.963 25.96 151.562 25.9813 152.311 26.024C153.081 26.0453 153.766 26.1093 154.365 26.216C157.125 26.6427 159.382 27.5493 161.137 28.936C162.913 30.3227 164.218 32.072 165.052 34.184C165.887 36.2747 166.304 38.6107 166.304 41.192C166.304 45.0533 165.341 48.36 163.416 51.112C161.49 53.8427 158.473 55.528 154.365 56.168L150.514 56.424H139.73V72.04H131ZM157.061 72.04L147.946 53.288L156.933 51.56L166.946 72.04H157.061ZM139.73 48.296H150.128C150.578 48.296 151.07 48.2747 151.605 48.232C152.14 48.1893 152.632 48.104 153.081 47.976C154.258 47.656 155.167 47.1227 155.809 46.376C156.451 45.608 156.89 44.7653 157.125 43.848C157.382 42.9093 157.51 42.024 157.51 41.192C157.51 40.36 157.382 39.4853 157.125 38.568C156.89 37.6293 156.451 36.7867 155.809 36.04C155.167 35.272 154.258 34.728 153.081 34.408C152.632 34.28 152.14 34.1947 151.605 34.152C151.07 34.1093 150.578 34.088 150.128 34.088H139.73V48.296Z" fill="#0C0C09"/>
<path d="M183.63 73C181.148 73 179.041 72.5307 177.308 71.592C175.596 70.632 174.291 69.3627 173.392 67.784C172.515 66.184 172.076 64.424 172.076 62.504C172.076 60.904 172.322 59.4427 172.814 58.12C173.306 56.7973 174.098 55.6347 175.189 54.632C176.302 53.608 177.789 52.7547 179.651 52.072C180.934 51.6027 182.464 51.1867 184.24 50.824C186.016 50.4613 188.027 50.12 190.274 49.8C192.521 49.4587 194.992 49.0853 197.688 48.68L194.542 50.408C194.542 48.36 194.05 46.856 193.066 45.896C192.082 44.936 190.434 44.456 188.124 44.456C186.84 44.456 185.502 44.7653 184.112 45.384C182.721 46.0027 181.747 47.1013 181.191 48.68L173.296 46.184C174.173 43.3253 175.821 41 178.238 39.208C180.656 37.416 183.951 36.52 188.124 36.52C191.183 36.52 193.901 36.9893 196.276 37.928C198.651 38.8667 200.448 40.488 201.668 42.792C202.352 44.072 202.759 45.352 202.887 46.632C203.015 47.912 203.08 49.3413 203.08 50.92V72.04H195.441V64.936L196.532 66.408C194.842 68.7333 193.013 70.4187 191.044 71.464C189.097 72.488 186.626 73 183.63 73ZM185.492 66.152C187.097 66.152 188.445 65.8747 189.536 65.32C190.648 64.744 191.526 64.0933 192.167 63.368C192.831 62.6427 193.28 62.0347 193.515 61.544C193.965 60.6053 194.222 59.5173 194.286 58.28C194.371 57.0213 194.414 55.976 194.414 55.144L196.982 55.784C194.393 56.2107 192.296 56.5733 190.691 56.872C189.086 57.1493 187.792 57.4053 186.808 57.64C185.823 57.8747 184.957 58.1307 184.208 58.408C183.352 58.7493 182.657 59.1227 182.122 59.528C181.608 59.912 181.223 60.3387 180.966 60.808C180.731 61.2773 180.613 61.8 180.613 62.376C180.613 63.1653 180.806 63.848 181.191 64.424C181.598 64.9787 182.165 65.4053 182.892 65.704C183.62 66.0027 184.486 66.152 185.492 66.152Z" fill="#0C0C09"/>
<path d="M212.067 32.68V25H220.796V32.68H212.067ZM212.067 72.04V37.48H220.796V72.04H212.067Z" fill="#0C0C09"/>
<path d="M231.06 72.04V25H239.79V72.04H231.06Z" fill="#0C0C09"/>
<path d="M249.412 72.04V25.96H277.655V34.664H258.142V44.648H273.804V53.352H258.142V72.04H249.412Z" fill="#0C0C09"/>
<path d="M284.092 72.04V25H292.821V72.04H284.092Z" fill="#0C0C09"/>
<path d="M318.041 73C314.554 73 311.494 72.2213 308.862 70.664C306.231 69.1067 304.176 66.9627 302.7 64.232C301.245 61.48 300.518 58.3227 300.518 54.76C300.518 51.1547 301.267 47.9867 302.764 45.256C304.262 42.504 306.327 40.36 308.959 38.824C311.59 37.288 314.618 36.52 318.041 36.52C321.529 36.52 324.589 37.2987 327.22 38.856C329.874 40.4133 331.938 42.568 333.415 45.32C334.891 48.0507 335.629 51.1973 335.629 54.76C335.629 58.344 334.88 61.512 333.383 64.264C331.906 66.9947 329.842 69.1387 327.188 70.696C324.557 72.232 321.508 73 318.041 73ZM318.041 64.872C320.844 64.872 322.93 63.9333 324.3 62.056C325.691 60.1573 326.386 57.7253 326.386 54.76C326.386 51.688 325.68 49.2347 324.268 47.4C322.877 45.5653 320.802 44.648 318.041 44.648C316.137 44.648 314.575 45.0747 313.356 45.928C312.136 46.7813 311.227 47.9653 310.628 49.48C310.05 50.9947 309.761 52.7547 309.761 54.76C309.761 57.8533 310.456 60.3173 311.847 62.152C313.259 63.9653 315.324 64.872 318.041 64.872Z" fill="#0C0C09"/>
<path d="M348.815 72.04L338.224 37.416L346.761 37.48L353.052 58.088L359.439 37.48H366.692L373.079 58.088L379.369 37.48H387.907L377.315 72.04H370.64L363.065 49.512L355.491 72.04H348.815Z" fill="#0C0C09"/>
<path d="M419.324 49.96V25.96H424.138L432.162 38.056L440.186 25.96H445V49.96H439.223V37.096L433.767 45.544H430.557L425.101 37.096V49.96H419.324ZM400.966 49.96V31.336H393.071V25.96H414.895V31.336H407V49.96H400.966Z" fill="#0C0C09"/>
</svg>
